# xmcd CD database file
#
# Track frame offsets:
#	150
#	11918
#	24315
#	39177
#	54337
#	67443
#	81113
#	97374
#	111532
#	125967
#	139809
#	147331
#	158821
#	173412
#	187261
#	201587
#	213070
#	228863
#
# Disc length: 3248 seconds
#
# Revision: 0
# Processed by: cddbd v1.5.2PL0 Copyright (c) Steve Scherf et al.
# Submitted via: CDex 1.70beta2
#
DISCID=100cae12
DTITLE=Frank Sinatra - The Swing Years 
DYEAR=2006
DGENRE=Jazz
TTITLE0=All of Me
TTITLE1=Saturday Night I Te Loneliest Night
TTITLE2=I've Got A Crush on You
TTITLE3=Teres No Business Like Show Business
TTITLE4=How About You
TTITLE5=You'll Never Know
TTITLE6=I've Got You Under My Skin
TTITLE7=Devil May Care
TTITLE8=I Get A Kick out of You
TTITLE9=Night and Day
TTITLE10=S'wonderful
TTITLE11=Fly Me to the Moon
TTITLE12=Oh Look at Me Now (with Connie Haines and the Pied Pipers)
TTITLE13=Violets for Your Furs
TTITLE14=Sweet Lorraine
TTITLE15=The Coffee Song
TTITLE16=The One I Love Belongs to Someone Else
TTITLE17=Tea for Two (with Dinah Shore)
EXTD=YEAR: 2006
EXTT0=
EXTT1=
EXTT2=
EXTT3=
EXTT4=
EXTT5=
EXTT6=
EXTT7=
EXTT8=
EXTT9=
EXTT10=
EXTT11=
EXTT12=
EXTT13=
EXTT14=
EXTT15=
EXTT16=
EXTT17=
PLAYORDER=
